<?xml version="1.0" standalone="no"?>
<!DOCTYPE svg PUBLIC "-//W3C//DTD SVG 20010904//EN"
 "http://www.w3.org/TR/2001/REC-SVG-20010904/DTD/svg10.dtd">
<svg version="1.0" xmlns="http://www.w3.org/2000/svg"
 width="978.000000pt" height="1280.000000pt" viewBox="0 0 978.000000 1280.000000"
 preserveAspectRatio="xMidYMid meet">
<metadata>
Created by potrace 1.15, written by Peter Selinger 2001-2017
</metadata>
<g transform="translate(0.000000,1280.000000) scale(0.100000,-0.100000)"
fill="#000000" stroke="none">
<path d="M2375 12794 c-596 -33 -1156 -159 -1505 -339 -181 -94 -362 -259
-485 -445 -207 -311 -318 -684 -367 -1230 -16 -185 -16 -870 0 -1120 7 -102
21 -315 32 -475 11 -159 24 -387 30 -505 5 -118 12 -244 16 -280 6 -72 38
-221 54 -250 7 -13 5 -38 -7 -87 -24 -94 -24 -466 1 -678 69 -605 176 -1239
331 -1970 122 -572 214 -944 287 -1155 50 -143 50 -147 58 -310 9 -169 29
-304 80 -517 109 -457 350 -1133 650 -1823 402 -923 711 -1441 922 -1542 167
-81 436 -88 658 -17 105 34 296 132 420 215 106 71 1501 1148 1895 1463 292
234 509 460 584 610 22 42 77 105 218 246 812 818 2032 2594 2182 3179 15 60
40 110 119 239 601 977 876 1520 1066 2104 246 758 216 1359 -92 1814 -397
588 -1097 1160 -2005 1635 -1274 667 -2756 1096 -4217 1219 -176 15 -774 27
-925 19z"/>
</g>
</svg>
